<?xml version="1.0" encoding="UTF-8"?>
<svg xmlns="http://www.w3.org/2000/svg" xmlns:xlink="http://www.w3.org/1999/xlink" width="242pt" height="201pt" viewBox="0 0 242 201" version="1.1">
<defs>
<filter id="alpha" filterUnits="objectBoundingBox" x="0%" y="0%" width="100%" height="100%">
  <feColorMatrix type="matrix" in="SourceGraphic" values="0 0 0 0 1 0 0 0 0 1 0 0 0 0 1 0 0 0 1 0"/>
</filter>
<mask id="mask0">
  <g filter="url(#alpha)">
<rect x="0" y="0" width="242" height="201" style="fill:rgb(0%,0%,0%);fill-opacity:0.101961;stroke:none;"/>
  </g>
</mask>
<clipPath id="clip1">
  <rect x="0" y="0" width="242" height="201"/>
</clipPath>
<g id="surface5" clip-path="url(#clip1)">
<path style=" stroke:none;fill-rule:nonzero;fill:rgb(42.352941%,38.823529%,100%);fill-opacity:1;" d="M 225.9375 111.039062 C 216.644531 126.09375 218.386719 146.605469 222.46875 162.78125 C 223.832031 168.195312 225.40625 173.910156 224.238281 179.972656 C 222.808594 187.382812 217.605469 193.199219 212.335938 196.535156 C 202.730469 202.59375 191.765625 202.425781 183.777344 196.089844 C 176.878906 190.617188 172.339844 181.070312 165.296875 175.890625 C 153.523438 167.222656 137.355469 172.476562 123.316406 180.578125 C 113.386719 186.296875 102.460938 193.574219 93.28125 189.453125 C 86.828125 186.5625 82.800781 178.398438 80.921875 169.515625 C 80.015625 165.226562 79.464844 160.542969 77.386719 157.273438 C 76.148438 155.332031 74.449219 154.03125 72.683594 152.964844 C 56.589844 143.246094 34.8125 151.371094 19.289062 140.363281 C 8.804688 132.929688 2.847656 117.578125 0.886719 101.164062 C -1.070312 84.746094 0.539062 67.179688 2.554688 49.886719 C 3.992188 37.589844 5.933594 24.4375 12.375 14.4375 C 19.191406 3.859375 29.9375 -0.871094 39.277344 0.132812 C 48.617188 1.136719 56.726562 7.0625 63.714844 14.308594 C 72.449219 23.363281 80.328125 34.925781 91.632812 37.847656 C 99.335938 39.835938 107.746094 37.53125 115.933594 36.230469 C 129.609375 34.050781 143.089844 34.675781 156.476562 35.496094 C 169.292969 36.277344 182.1875 37.25 194.132812 41.769531 C 202.582031 44.96875 209.066406 51.628906 216.953125 55.957031 C 222.09375 58.78125 227.894531 59.140625 232.683594 62.90625 C 238.582031 67.542969 243.6875 76.101562 241.324219 86.921875 C 239.074219 97.214844 230.867188 103.050781 225.9375 111.039062 Z M 225.9375 111.039062 "/>
</g>
<linearGradient id="linear0" gradientUnits="userSpaceOnUse" x1="478.38" y1="695.72" x2="478.38" y2="33.2" gradientTransform="matrix(0.250518,0,0,0.250936,0,0)">
<stop offset="0" style="stop-color:rgb(50.196078%,50.196078%,50.196078%);stop-opacity:0.25098;"/>
<stop offset="0.54" style="stop-color:rgb(50.196078%,50.196078%,50.196078%);stop-opacity:0.121569;"/>
<stop offset="1" style="stop-color:rgb(50.196078%,50.196078%,50.196078%);stop-opacity:0.101961;"/>
</linearGradient>
<linearGradient id="linear1" gradientUnits="userSpaceOnUse" x1="1834.21" y1="806.87" x2="1834.21" y2="194.98" gradientTransform="matrix(-0.250518,0,0,0.250936,663.576025,-12.443933)">
<stop offset="0" style="stop-color:rgb(50.196078%,50.196078%,50.196078%);stop-opacity:0.25098;"/>
<stop offset="0.54" style="stop-color:rgb(50.196078%,50.196078%,50.196078%);stop-opacity:0.121569;"/>
<stop offset="1" style="stop-color:rgb(50.196078%,50.196078%,50.196078%);stop-opacity:0.101961;"/>
</linearGradient>
<mask id="mask1">
  <g filter="url(#alpha)">
<rect x="0" y="0" width="242" height="201" style="fill:rgb(0%,0%,0%);fill-opacity:0.101961;stroke:none;"/>
  </g>
</mask>
<clipPath id="clip2">
  <rect x="0" y="0" width="242" height="201"/>
</clipPath>
<g id="surface8" clip-path="url(#clip2)">
<path style=" stroke:none;fill-rule:nonzero;fill:rgb(0%,0%,0%);fill-opacity:1;" d="M 212.492188 178.078125 L 213.335938 180.617188 L 210.582031 183.375 L 201.5 185.492188 L 194.957031 184.855469 L 195.378906 182.53125 C 195.632812 181.511719 196.4375 180.71875 197.457031 180.480469 C 200.148438 179.847656 205.277344 178.402344 206.355469 176.398438 Z M 212.492188 178.078125 "/>
</g>
<mask id="mask2">
  <g filter="url(#alpha)">
<rect x="0" y="0" width="242" height="201" style="fill:rgb(0%,0%,0%);fill-opacity:0.101961;stroke:none;"/>
  </g>
</mask>
<clipPath id="clip3">
  <rect x="0" y="0" width="242" height="201"/>
</clipPath>
<g id="surface11" clip-path="url(#clip3)">
<path style=" stroke:none;fill-rule:nonzero;fill:rgb(0%,0%,0%);fill-opacity:1;" d="M 191.375 187.804688 L 197.921875 188.4375 L 207 186.324219 L 209.757812 183.5625 L 209.53125 182.890625 L 207.011719 184.832031 C 207.011719 184.832031 202.367188 187.367188 200.046875 186.949219 L 193.488281 186.949219 L 194.753906 185.257812 L 193.617188 183.5 C 192.714844 183.804688 192.03125 184.546875 191.796875 185.472656 Z M 191.375 187.804688 "/>
</g>
<mask id="mask3">
  <g filter="url(#alpha)">
<rect x="0" y="0" width="242" height="201" style="fill:rgb(0%,0%,0%);fill-opacity:0.101961;stroke:none;"/>
  </g>
</mask>
<clipPath id="clip4">
  <rect x="0" y="0" width="242" height="201"/>
</clipPath>
<g id="surface14" clip-path="url(#clip4)">
<path style=" stroke:none;fill-rule:nonzero;fill:rgb(0%,0%,0%);fill-opacity:1;" d="M 216.078125 112.726562 C 216.078125 112.726562 215.867188 121.820312 213.757812 126.261719 L 213.332031 139.164062 C 213.332031 139.164062 213.96875 151.007812 215.234375 153.335938 C 216.503906 155.660156 212.480469 175.328125 212.480469 175.328125 L 212.480469 178.714844 C 212.480469 178.714844 205.714844 181.25 203.820312 178.289062 L 205.722656 153.121094 L 204.878906 118.226562 Z M 216.078125 112.726562 "/>
</g>
<mask id="mask4">
  <g filter="url(#alpha)">
<rect x="0" y="0" width="242" height="201" style="fill:rgb(0%,0%,0%);fill-opacity:0.0509804;stroke:none;"/>
  </g>
</mask>
<clipPath id="clip5">
  <rect x="0" y="0" width="242" height="201"/>
</clipPath>
<g id="surface17" clip-path="url(#clip5)">
<path style=" stroke:none;fill-rule:nonzero;fill:rgb(0%,0%,0%);fill-opacity:1;" d="M 220.300781 83.542969 L 221.570312 86.925781 L 222.625 94.117188 C 222.914062 96.152344 222.207031 98.199219 220.722656 99.617188 C 218.191406 102.152344 214.8125 107.441406 214.8125 107.441406 L 210.804688 95.394531 C 210.804688 95.394531 214.8125 94.761719 214.183594 92.011719 C 213.554688 89.261719 213.757812 84.167969 213.757812 84.167969 Z M 220.300781 83.542969 "/>
</g>
<mask id="mask5">
  <g filter="url(#alpha)">
<rect x="0" y="0" width="242" height="201" style="fill:rgb(0%,0%,0%);fill-opacity:0.101961;stroke:none;"/>
  </g>
</mask>
<clipPath id="clip6">
  <rect x="0" y="0" width="242" height="201"/>
</clipPath>
<g id="surface20" clip-path="url(#clip6)">
<path style=" stroke:none;fill-rule:nonzero;fill:rgb(0%,0%,0%);fill-opacity:1;" d="M 201.535156 180.59375 C 204.246094 184.859375 208.460938 182.441406 209.207031 181.960938 L 208.902344 181.027344 L 202.777344 179.335938 C 202.46875 179.847656 202.042969 180.277344 201.535156 180.59375 Z M 201.535156 180.59375 "/>
</g>
<mask id="mask6">
  <g filter="url(#alpha)">
<rect x="0" y="0" width="242" height="201" style="fill:rgb(0%,0%,0%);fill-opacity:0.101961;stroke:none;"/>
  </g>
</mask>
<clipPath id="clip7">
  <rect x="0" y="0" width="242" height="201"/>
</clipPath>
<g id="surface23" clip-path="url(#clip7)">
<path style=" stroke:none;fill-rule:nonzero;fill:rgb(0%,0%,0%);fill-opacity:1;" d="M 199.398438 54.78125 C 199.96875 55.734375 200.402344 56.761719 200.6875 57.835938 C 202.773438 58.628906 205.089844 58.542969 207.109375 57.601562 C 207.375 56.050781 207.984375 54.578125 208.902344 53.300781 Z M 199.398438 54.78125 "/>
</g>
<mask id="mask7">
  <g filter="url(#alpha)">
<rect x="0" y="0" width="242" height="201" style="fill:rgb(0%,0%,0%);fill-opacity:0.101961;stroke:none;"/>
  </g>
</mask>
<clipPath id="clip8">
  <rect x="0" y="0" width="242" height="201"/>
</clipPath>
<g id="surface26" clip-path="url(#clip8)">
<path style=" stroke:none;fill-rule:nonzero;fill:rgb(0%,0%,0%);fill-opacity:1;" d="M 193.066406 107.230469 L 193.15625 107.246094 C 202.011719 109.070312 213.125 99.828125 213.125 99.828125 C 212.828125 99.324219 212.570312 98.796875 212.355469 98.253906 C 212.050781 97.773438 211.855469 97.5 211.855469 97.5 L 193.210938 104.910156 L 193.164062 105.648438 Z M 193.066406 107.230469 "/>
</g>
<mask id="mask8">
  <g filter="url(#alpha)">
<rect x="0" y="0" width="242" height="201" style="fill:rgb(0%,0%,0%);fill-opacity:0.101961;stroke:none;"/>
  </g>
</mask>
<clipPath id="clip9">
  <rect x="0" y="0" width="242" height="201"/>
</clipPath>
<g id="surface29" clip-path="url(#clip9)">
<path style=" stroke:none;fill-rule:nonzero;fill:rgb(0%,0%,0%);fill-opacity:1;" d="M 201.300781 68.316406 C 201.300781 68.316406 205.523438 67.890625 206.578125 78.890625 C 207.632812 89.886719 209.335938 92.425781 209.335938 92.425781 C 209.335938 92.425781 210.390625 98.136719 207.855469 101.519531 C 205.324219 104.902344 200.464844 112.09375 200.464844 112.09375 C 200.464844 112.09375 195.1875 113.574219 194.132812 108.285156 L 200.679688 96.019531 C 200.679688 96.019531 201.734375 91.789062 199.203125 88.828125 C 196.667969 85.867188 194.753906 66.199219 201.300781 68.316406 Z M 201.300781 68.316406 "/>
</g>
<mask id="mask9">
  <g filter="url(#alpha)">
<rect x="0" y="0" width="242" height="201" style="fill:rgb(0%,0%,0%);fill-opacity:0.101961;stroke:none;"/>
  </g>
</mask>
<clipPath id="clip10">
  <rect x="0" y="0" width="242" height="201"/>
</clipPath>
<g id="surface32" clip-path="url(#clip10)">
<path style=" stroke:none;fill-rule:nonzero;fill:rgb(0%,0%,0%);fill-opacity:1;" d="M 197.394531 75.609375 C 197.394531 75.609375 196.972656 82.160156 198.867188 85.761719 C 200.761719 89.367188 200.765625 94.011719 198.867188 96.554688 "/>
</g>
<mask id="mask10">
  <g filter="url(#alpha)">
<rect x="0" y="0" width="242" height="201" style="fill:rgb(0%,0%,0%);fill-opacity:0.101961;stroke:none;"/>
  </g>
</mask>
<clipPath id="clip11">
  <rect x="0" y="0" width="242" height="201"/>
</clipPath>
<g id="surface35" clip-path="url(#clip11)">
<path style=" stroke:none;fill-rule:nonzero;fill:rgb(0%,0%,0%);fill-opacity:1;" d="M 196.339844 67.574219 C 196.339844 67.574219 198.027344 65.882812 202.882812 65.671875 C 207.742188 65.457031 209.851562 63.980469 209.851562 63.980469 "/>
</g>
<mask id="mask11">
  <g filter="url(#alpha)">
<rect x="0" y="0" width="242" height="201" style="fill:rgb(0%,0%,0%);fill-opacity:0.101961;stroke:none;"/>
  </g>
</mask>
<clipPath id="clip12">
  <rect x="0" y="0" width="242" height="201"/>
</clipPath>
<g id="surface38" clip-path="url(#clip12)">
<path style=" stroke:none;fill-rule:nonzero;fill:rgb(0%,0%,0%);fill-opacity:1;" d="M 208.082031 39.042969 C 209.363281 39.203125 210.839844 39.644531 211.292969 40.851562 C 211.464844 41.292969 211.46875 41.785156 211.585938 42.242188 C 212.066406 44.089844 214.140625 44.949219 215.421875 46.363281 C 216.550781 47.617188 217.050781 49.296875 217.425781 50.941406 C 218.480469 55.652344 218.734375 60.511719 218.179688 65.308594 C 217.765625 68.820312 216.925781 72.269531 216.691406 75.792969 C 216.453125 79.316406 216.886719 83.023438 218.808594 85.984375 C 219.632812 87.253906 220.726562 88.375 221.3125 89.773438 C 220.101562 90.757812 218.429688 90.898438 216.871094 90.953125 C 215.054688 91.015625 213.238281 91.015625 211.421875 90.953125 C 210.46875 90.917969 209.476562 90.855469 208.652344 90.375 C 208.046875 89.984375 207.546875 89.445312 207.199219 88.8125 C 206.160156 87.054688 205.902344 84.921875 205.949219 82.875 C 205.996094 80.828125 206.316406 78.789062 206.355469 76.738281 C 206.375 75.621094 206.285156 74.433594 205.644531 73.523438 C 205.179688 72.863281 204.476562 72.417969 203.875 71.882812 C 201.621094 69.875 200.839844 66.660156 200.765625 63.636719 C 200.691406 60.609375 201.1875 57.582031 200.933594 54.570312 C 200.832031 53.390625 200.390625 51.972656 199.234375 51.742188 C 198.867188 51.671875 198.484375 51.742188 198.132812 51.601562 C 197.203125 51.242188 197.292969 49.929688 197.027344 48.96875 C 196.730469 47.890625 195.808594 47.058594 195.550781 45.960938 C 194.941406 43.398438 198.195312 40.34375 200.328125 39.453125 C 202.492188 38.546875 205.796875 38.761719 208.082031 39.042969 Z M 208.082031 39.042969 "/>
</g>
</defs>
<g id="surface1">
<use xlink:href="#surface5" mask="url(#mask0)"/>
<path style="fill:none;stroke-width:2;stroke-linecap:butt;stroke-linejoin:miter;stroke:rgb(32.54902%,32.941176%,38.039216%);stroke-opacity:1;stroke-miterlimit:10;" d="M 781.663632 356.47188 C 781.663632 356.47188 882.673253 271.835744 905.126765 229.167425 C 927.59587 186.499107 956.177321 149.730567 956.177321 149.730567 " transform="matrix(0.250518,0,0,0.250936,-29.355652,-12.443933)"/>
<path style=" stroke:none;fill-rule:nonzero;fill:rgb(42.352941%,38.823529%,100%);fill-opacity:1;" d="M 206.855469 49.066406 L 195.914062 46.59375 C 195.914062 46.59375 198.496094 58.15625 206.855469 49.066406 Z M 206.855469 49.066406 "/>
<path style=" stroke:none;fill-rule:nonzero;fill:rgb(42.352941%,38.823529%,100%);fill-opacity:1;" d="M 190.132812 37.261719 L 196.429688 46.710938 C 196.429688 46.710938 184.117188 47.601562 190.132812 37.261719 Z M 190.132812 37.261719 "/>
<path style=" stroke:none;fill-rule:nonzero;fill:rgb(42.352941%,38.823529%,100%);fill-opacity:1;" d="M 211.164062 40.183594 L 201.160156 38.429688 C 201.160156 38.429688 207.445312 48 211.164062 40.183594 Z M 211.164062 40.183594 "/>
<path style=" stroke:none;fill-rule:nonzero;fill:rgb(42.352941%,38.823529%,100%);fill-opacity:1;" d="M 196.359375 31.742188 L 201.289062 38.203125 C 201.289062 38.203125 192.566406 39.03125 196.359375 31.742188 Z M 196.359375 31.742188 "/>
<path style=" stroke:none;fill-rule:nonzero;fill:rgb(42.352941%,38.823529%,100%);fill-opacity:1;" d="M 206.332031 30.453125 C 206.332031 30.453125 214.851562 30.859375 215.851562 31.675781 C 216.855469 32.492188 214.582031 37.273438 211.34375 36.492188 C 208.105469 35.710938 206.332031 30.453125 206.332031 30.453125 Z M 206.332031 30.453125 "/>
<path style=" stroke:none;fill-rule:nonzero;fill:rgb(42.352941%,38.823529%,100%);fill-opacity:1;" d="M 202.929688 22.828125 C 202.929688 22.828125 206.410156 29.179688 206.277344 30.386719 C 206.148438 31.597656 200.976562 32.957031 199.929688 28.382812 C 198.886719 23.804688 202.929688 22.828125 202.929688 22.828125 Z M 202.929688 22.828125 "/>
<path style=" stroke:none;fill-rule:nonzero;fill:rgb(100%,81.568627%,21.568627%);fill-opacity:1;" d="M 212.203125 24.703125 C 213.453125 25.097656 214.144531 26.429688 213.75 27.679688 C 213.355469 28.929688 212.027344 29.621094 210.777344 29.226562 C 209.53125 28.832031 208.839844 27.5 209.234375 26.25 C 209.628906 25 210.957031 24.308594 212.203125 24.703125 Z M 212.203125 24.703125 "/>
<path style=" stroke:none;fill-rule:nonzero;fill:rgb(100%,81.568627%,21.568627%);fill-opacity:1;" d="M 208.496094 22.261719 C 209.746094 22.65625 210.4375 23.988281 210.042969 25.238281 C 209.648438 26.488281 208.316406 27.179688 207.070312 26.785156 C 205.824219 26.390625 205.132812 25.058594 205.523438 23.808594 C 205.917969 22.558594 207.25 21.867188 208.496094 22.261719 Z M 208.496094 22.261719 "/>
<path style=" stroke:none;fill-rule:nonzero;fill:rgb(42.352941%,38.823529%,100%);fill-opacity:1;" d="M 87.546875 160.253906 C 87.546875 160.253906 91.605469 148.15625 65.863281 133.570312 C 65.863281 133.570312 39.722656 125.933594 42.398438 99.710938 C 42.398438 99.710938 12.265625 121.820312 32.65625 149.988281 C 53.042969 178.15625 70.644531 172.007812 70.644531 172.007812 Z M 87.546875 160.253906 "/>
<path style="fill:none;stroke-width:2;stroke-linecap:butt;stroke-linejoin:miter;stroke:rgb(32.54902%,32.941176%,38.039216%);stroke-opacity:1;stroke-miterlimit:10;" d="M 435.302611 710.007153 C 435.302611 710.007153 385.172026 655.803911 337.115272 634.866702 C 327.510159 630.53916 318.684681 624.670515 310.997472 617.463134 C 280.357783 589.474212 266.994824 547.226194 274.900332 506.472579 L 286.454535 446.945527 " transform="matrix(0.250518,0,0,0.250936,-29.355652,-12.443933)"/>
<path style=" stroke:none;fill-rule:nonzero;fill:url(#linear0);" d="M 48.367188 8.332031 L 191.316406 8.332031 L 191.316406 174.582031 L 48.367188 174.582031 Z M 48.367188 8.332031 "/>
<path style=" stroke:none;fill-rule:nonzero;fill:rgb(96.862745%,96.862745%,99.215686%);fill-opacity:1;" d="M 50.035156 10.265625 L 189.652344 10.265625 L 189.652344 172.644531 L 50.035156 172.644531 Z M 50.035156 10.265625 "/>
<path style=" stroke:none;fill-rule:nonzero;fill:rgb(88.627451%,88.627451%,92.54902%);fill-opacity:1;" d="M 58.464844 28.570312 L 93.761719 28.570312 L 93.761719 31.382812 L 58.464844 31.382812 Z M 58.464844 28.570312 "/>
<path style=" stroke:none;fill-rule:nonzero;fill:rgb(88.627451%,88.627451%,92.54902%);fill-opacity:1;" d="M 58.464844 35.453125 L 118.746094 35.453125 L 118.746094 38.269531 L 58.464844 38.269531 Z M 58.464844 35.453125 "/>
<path style=" stroke:none;fill-rule:nonzero;fill:rgb(100%,100%,100%);fill-opacity:1;" d="M 157.917969 25.878906 L 182.964844 25.878906 L 182.964844 47.53125 L 157.917969 47.53125 Z M 157.917969 25.878906 "/>
<path style=" stroke:none;fill-rule:nonzero;fill:rgb(88.627451%,88.627451%,92.54902%);fill-opacity:1;" d="M 182.832031 26.003906 L 182.832031 47.40625 L 158.03125 47.40625 L 158.03125 26.003906 L 182.832031 26.003906 M 183.082031 25.753906 L 157.78125 25.753906 L 157.78125 47.65625 L 183.082031 47.65625 Z M 183.082031 25.753906 "/>
<path style=" stroke:none;fill-rule:nonzero;fill:rgb(100%,100%,100%);fill-opacity:1;" d="M 132.617188 25.878906 L 157.664062 25.878906 L 157.664062 47.53125 L 132.617188 47.53125 Z M 132.617188 25.878906 "/>
<path style=" stroke:none;fill-rule:nonzero;fill:rgb(88.627451%,88.627451%,92.54902%);fill-opacity:1;" d="M 157.53125 26.003906 L 157.53125 47.40625 L 132.730469 47.40625 L 132.730469 26.003906 L 157.53125 26.003906 M 157.78125 25.753906 L 132.480469 25.753906 L 132.480469 47.65625 L 157.78125 47.65625 Z M 157.78125 25.753906 "/>
<path style=" stroke:none;fill-rule:nonzero;fill:rgb(100%,100%,100%);fill-opacity:1;" d="M 157.917969 47.78125 L 182.964844 47.78125 L 182.964844 69.429688 L 157.917969 69.429688 Z M 157.917969 47.78125 "/>
<path style=" stroke:none;fill-rule:nonzero;fill:rgb(88.627451%,88.627451%,92.54902%);fill-opacity:1;" d="M 182.832031 47.90625 L 182.832031 69.304688 L 158.03125 69.304688 L 158.03125 47.90625 L 182.832031 47.90625 M 183.082031 47.65625 L 157.78125 47.65625 L 157.78125 69.558594 L 183.082031 69.558594 Z M 183.082031 47.65625 "/>
<path style=" stroke:none;fill-rule:nonzero;fill:rgb(100%,100%,100%);fill-opacity:1;" d="M 132.617188 47.78125 L 157.664062 47.78125 L 157.664062 69.429688 L 132.617188 69.429688 Z M 132.617188 47.78125 "/>
<path style=" stroke:none;fill-rule:nonzero;fill:rgb(88.627451%,88.627451%,92.54902%);fill-opacity:1;" d="M 157.53125 47.90625 L 157.53125 69.304688 L 132.730469 69.304688 L 132.730469 47.90625 L 157.53125 47.90625 M 157.78125 47.65625 L 132.480469 47.65625 L 132.480469 69.558594 L 157.78125 69.558594 Z M 157.78125 47.65625 "/>
<path style=" stroke:none;fill-rule:nonzero;fill:rgb(100%,100%,100%);fill-opacity:1;" d="M 107.316406 47.78125 L 132.367188 47.78125 L 132.367188 69.429688 L 107.316406 69.429688 Z M 107.316406 47.78125 "/>
<path style=" stroke:none;fill-rule:nonzero;fill:rgb(88.627451%,88.627451%,92.54902%);fill-opacity:1;" d="M 132.242188 47.90625 L 132.242188 69.304688 L 107.441406 69.304688 L 107.441406 47.90625 L 132.242188 47.90625 M 132.492188 47.65625 L 107.1875 47.65625 L 107.1875 69.558594 L 132.492188 69.558594 Z M 132.492188 47.65625 "/>
<path style=" stroke:none;fill-rule:nonzero;fill:rgb(100%,100%,100%);fill-opacity:1;" d="M 82.015625 47.78125 L 107.066406 47.78125 L 107.066406 69.429688 L 82.015625 69.429688 Z M 82.015625 47.78125 "/>
<path style=" stroke:none;fill-rule:nonzero;fill:rgb(88.627451%,88.627451%,92.54902%);fill-opacity:1;" d="M 106.941406 47.90625 L 106.941406 69.304688 L 82.140625 69.304688 L 82.140625 47.90625 L 106.941406 47.90625 M 107.191406 47.65625 L 81.890625 47.65625 L 81.890625 69.558594 L 107.191406 69.558594 Z M 107.191406 47.65625 "/>
<path style=" stroke:none;fill-rule:nonzero;fill:rgb(100%,100%,100%);fill-opacity:1;" d="M 56.71875 47.78125 L 81.765625 47.78125 L 81.765625 69.429688 L 56.71875 69.429688 Z M 56.71875 47.78125 "/>
<path style=" stroke:none;fill-rule:nonzero;fill:rgb(88.627451%,88.627451%,92.54902%);fill-opacity:1;" d="M 81.640625 47.90625 L 81.640625 69.304688 L 56.839844 69.304688 L 56.839844 47.90625 L 81.640625 47.90625 M 81.890625 47.65625 L 56.589844 47.65625 L 56.589844 69.558594 L 81.890625 69.558594 Z M 81.890625 47.65625 "/>
<path style=" stroke:none;fill-rule:nonzero;fill:rgb(100%,100%,100%);fill-opacity:1;" d="M 157.917969 69.679688 L 182.964844 69.679688 L 182.964844 91.332031 L 157.917969 91.332031 Z M 157.917969 69.679688 "/>
<path style=" stroke:none;fill-rule:nonzero;fill:rgb(88.627451%,88.627451%,92.54902%);fill-opacity:1;" d="M 182.832031 69.808594 L 182.832031 91.207031 L 158.03125 91.207031 L 158.03125 69.808594 L 182.832031 69.808594 M 183.082031 69.558594 L 157.78125 69.558594 L 157.78125 91.457031 L 183.082031 91.457031 Z M 183.082031 69.558594 "/>
<path style=" stroke:none;fill-rule:nonzero;fill:rgb(100%,100%,100%);fill-opacity:1;" d="M 132.617188 69.679688 L 157.664062 69.679688 L 157.664062 91.332031 L 132.617188 91.332031 Z M 132.617188 69.679688 "/>
<path style=" stroke:none;fill-rule:nonzero;fill:rgb(88.627451%,88.627451%,92.54902%);fill-opacity:1;" d="M 157.53125 69.808594 L 157.53125 91.207031 L 132.730469 91.207031 L 132.730469 69.808594 L 157.53125 69.808594 M 157.78125 69.558594 L 132.480469 69.558594 L 132.480469 91.457031 L 157.78125 91.457031 Z M 157.78125 69.558594 "/>
<path style=" stroke:none;fill-rule:nonzero;fill:rgb(100%,100%,100%);fill-opacity:1;" d="M 107.316406 69.679688 L 132.367188 69.679688 L 132.367188 91.332031 L 107.316406 91.332031 Z M 107.316406 69.679688 "/>
<path style=" stroke:none;fill-rule:nonzero;fill:rgb(88.627451%,88.627451%,92.54902%);fill-opacity:1;" d="M 132.242188 69.808594 L 132.242188 91.207031 L 107.441406 91.207031 L 107.441406 69.808594 L 132.242188 69.808594 M 132.492188 69.558594 L 107.1875 69.558594 L 107.1875 91.457031 L 132.492188 91.457031 Z M 132.492188 69.558594 "/>
<path style=" stroke:none;fill-rule:nonzero;fill:rgb(100%,100%,100%);fill-opacity:1;" d="M 82.015625 69.679688 L 107.066406 69.679688 L 107.066406 91.332031 L 82.015625 91.332031 Z M 82.015625 69.679688 "/>
<path style=" stroke:none;fill-rule:nonzero;fill:rgb(88.627451%,88.627451%,92.54902%);fill-opacity:1;" d="M 106.941406 69.808594 L 106.941406 91.207031 L 82.140625 91.207031 L 82.140625 69.808594 L 106.941406 69.808594 M 107.191406 69.558594 L 81.890625 69.558594 L 81.890625 91.457031 L 107.191406 91.457031 Z M 107.191406 69.558594 "/>
<path style=" stroke:none;fill-rule:nonzero;fill:rgb(100%,100%,100%);fill-opacity:1;" d="M 56.71875 69.679688 L 81.765625 69.679688 L 81.765625 91.332031 L 56.71875 91.332031 Z M 56.71875 69.679688 "/>
<path style=" stroke:none;fill-rule:nonzero;fill:rgb(88.627451%,88.627451%,92.54902%);fill-opacity:1;" d="M 81.640625 69.808594 L 81.640625 91.207031 L 56.839844 91.207031 L 56.839844 69.808594 L 81.640625 69.808594 M 81.890625 69.558594 L 56.589844 69.558594 L 56.589844 91.457031 L 81.890625 91.457031 Z M 81.890625 69.558594 "/>
<path style=" stroke:none;fill-rule:nonzero;fill:rgb(100%,100%,100%);fill-opacity:1;" d="M 157.917969 91.582031 L 182.964844 91.582031 L 182.964844 113.234375 L 157.917969 113.234375 Z M 157.917969 91.582031 "/>
<path style=" stroke:none;fill-rule:nonzero;fill:rgb(88.627451%,88.627451%,92.54902%);fill-opacity:1;" d="M 182.832031 91.707031 L 182.832031 113.105469 L 158.03125 113.105469 L 158.03125 91.707031 L 182.832031 91.707031 M 183.082031 91.457031 L 157.78125 91.457031 L 157.78125 113.359375 L 183.082031 113.359375 Z M 183.082031 91.457031 "/>
<path style=" stroke:none;fill-rule:nonzero;fill:rgb(100%,100%,100%);fill-opacity:1;" d="M 132.617188 91.582031 L 157.664062 91.582031 L 157.664062 113.234375 L 132.617188 113.234375 Z M 132.617188 91.582031 "/>
<path style=" stroke:none;fill-rule:nonzero;fill:rgb(88.627451%,88.627451%,92.54902%);fill-opacity:1;" d="M 157.53125 91.707031 L 157.53125 113.105469 L 132.730469 113.105469 L 132.730469 91.707031 L 157.53125 91.707031 M 157.78125 91.457031 L 132.480469 91.457031 L 132.480469 113.359375 L 157.78125 113.359375 Z M 157.78125 91.457031 "/>
<path style=" stroke:none;fill-rule:nonzero;fill:rgb(100%,100%,100%);fill-opacity:1;" d="M 107.316406 91.582031 L 132.367188 91.582031 L 132.367188 113.234375 L 107.316406 113.234375 Z M 107.316406 91.582031 "/>
<path style=" stroke:none;fill-rule:nonzero;fill:rgb(88.627451%,88.627451%,92.54902%);fill-opacity:1;" d="M 132.242188 91.707031 L 132.242188 113.105469 L 107.441406 113.105469 L 107.441406 91.707031 L 132.242188 91.707031 M 132.492188 91.457031 L 107.1875 91.457031 L 107.1875 113.359375 L 132.492188 113.359375 Z M 132.492188 91.457031 "/>
<path style=" stroke:none;fill-rule:nonzero;fill:rgb(100%,100%,100%);fill-opacity:1;" d="M 82.015625 91.582031 L 107.066406 91.582031 L 107.066406 113.234375 L 82.015625 113.234375 Z M 82.015625 91.582031 "/>
<path style=" stroke:none;fill-rule:nonzero;fill:rgb(88.627451%,88.627451%,92.54902%);fill-opacity:1;" d="M 106.941406 91.707031 L 106.941406 113.105469 L 82.140625 113.105469 L 82.140625 91.707031 L 106.941406 91.707031 M 107.191406 91.457031 L 81.890625 91.457031 L 81.890625 113.359375 L 107.191406 113.359375 Z M 107.191406 91.457031 "/>
<path style=" stroke:none;fill-rule:nonzero;fill:rgb(100%,100%,100%);fill-opacity:1;" d="M 56.71875 91.582031 L 81.765625 91.582031 L 81.765625 113.234375 L 56.71875 113.234375 Z M 56.71875 91.582031 "/>
<path style=" stroke:none;fill-rule:nonzero;fill:rgb(88.627451%,88.627451%,92.54902%);fill-opacity:1;" d="M 81.640625 91.707031 L 81.640625 113.105469 L 56.839844 113.105469 L 56.839844 91.707031 L 81.640625 91.707031 M 81.890625 91.457031 L 56.589844 91.457031 L 56.589844 113.359375 L 81.890625 113.359375 Z M 81.890625 91.457031 "/>
<path style=" stroke:none;fill-rule:nonzero;fill:rgb(100%,100%,100%);fill-opacity:1;" d="M 157.917969 113.480469 L 182.964844 113.480469 L 182.964844 135.132812 L 157.917969 135.132812 Z M 157.917969 113.480469 "/>
<path style=" stroke:none;fill-rule:nonzero;fill:rgb(88.627451%,88.627451%,92.54902%);fill-opacity:1;" d="M 182.832031 113.609375 L 182.832031 135.007812 L 158.03125 135.007812 L 158.03125 113.609375 L 182.832031 113.609375 M 183.082031 113.359375 L 157.78125 113.359375 L 157.78125 135.257812 L 183.082031 135.257812 Z M 183.082031 113.359375 "/>
<path style=" stroke:none;fill-rule:nonzero;fill:rgb(100%,100%,100%);fill-opacity:1;" d="M 132.617188 113.480469 L 157.664062 113.480469 L 157.664062 135.132812 L 132.617188 135.132812 Z M 132.617188 113.480469 "/>
<path style=" stroke:none;fill-rule:nonzero;fill:rgb(88.627451%,88.627451%,92.54902%);fill-opacity:1;" d="M 157.53125 113.609375 L 157.53125 135.007812 L 132.730469 135.007812 L 132.730469 113.609375 L 157.53125 113.609375 M 157.78125 113.359375 L 132.480469 113.359375 L 132.480469 135.257812 L 157.78125 135.257812 Z M 157.78125 113.359375 "/>
<path style=" stroke:none;fill-rule:nonzero;fill:rgb(100%,100%,100%);fill-opacity:1;" d="M 107.316406 113.480469 L 132.367188 113.480469 L 132.367188 135.132812 L 107.316406 135.132812 Z M 107.316406 113.480469 "/>
<path style=" stroke:none;fill-rule:nonzero;fill:rgb(88.627451%,88.627451%,92.54902%);fill-opacity:1;" d="M 132.242188 113.609375 L 132.242188 135.007812 L 107.441406 135.007812 L 107.441406 113.609375 L 132.242188 113.609375 M 132.492188 113.359375 L 107.1875 113.359375 L 107.1875 135.257812 L 132.492188 135.257812 Z M 132.492188 113.359375 "/>
<path style=" stroke:none;fill-rule:nonzero;fill:rgb(100%,100%,100%);fill-opacity:1;" d="M 82.015625 113.480469 L 107.066406 113.480469 L 107.066406 135.132812 L 82.015625 135.132812 Z M 82.015625 113.480469 "/>
<path style=" stroke:none;fill-rule:nonzero;fill:rgb(88.627451%,88.627451%,92.54902%);fill-opacity:1;" d="M 106.941406 113.609375 L 106.941406 135.007812 L 82.140625 135.007812 L 82.140625 113.609375 L 106.941406 113.609375 M 107.191406 113.359375 L 81.890625 113.359375 L 81.890625 135.257812 L 107.191406 135.257812 Z M 107.191406 113.359375 "/>
<path style=" stroke:none;fill-rule:nonzero;fill:rgb(100%,100%,100%);fill-opacity:1;" d="M 56.71875 113.480469 L 81.765625 113.480469 L 81.765625 135.132812 L 56.71875 135.132812 Z M 56.71875 113.480469 "/>
<path style=" stroke:none;fill-rule:nonzero;fill:rgb(88.627451%,88.627451%,92.54902%);fill-opacity:1;" d="M 81.640625 113.609375 L 81.640625 135.007812 L 56.839844 135.007812 L 56.839844 113.609375 L 81.640625 113.609375 M 81.890625 113.359375 L 56.589844 113.359375 L 56.589844 135.257812 L 81.890625 135.257812 Z M 81.890625 113.359375 "/>
<path style=" stroke:none;fill-rule:nonzero;fill:rgb(100%,100%,100%);fill-opacity:1;" d="M 157.917969 135.382812 L 182.964844 135.382812 L 182.964844 157.035156 L 157.917969 157.035156 Z M 157.917969 135.382812 "/>
<path style=" stroke:none;fill-rule:nonzero;fill:rgb(88.627451%,88.627451%,92.54902%);fill-opacity:1;" d="M 182.832031 135.507812 L 182.832031 156.90625 L 158.03125 156.90625 L 158.03125 135.507812 L 182.832031 135.507812 M 183.082031 135.257812 L 157.78125 135.257812 L 157.78125 157.160156 L 183.082031 157.160156 Z M 183.082031 135.257812 "/>
<path style=" stroke:none;fill-rule:nonzero;fill:rgb(100%,100%,100%);fill-opacity:1;" d="M 132.617188 135.382812 L 157.664062 135.382812 L 157.664062 157.035156 L 132.617188 157.035156 Z M 132.617188 135.382812 "/>
<path style=" stroke:none;fill-rule:nonzero;fill:rgb(88.627451%,88.627451%,92.54902%);fill-opacity:1;" d="M 157.53125 135.507812 L 157.53125 156.90625 L 132.730469 156.90625 L 132.730469 135.507812 L 157.53125 135.507812 M 157.78125 135.257812 L 132.480469 135.257812 L 132.480469 157.160156 L 157.78125 157.160156 Z M 157.78125 135.257812 "/>
<path style=" stroke:none;fill-rule:nonzero;fill:rgb(100%,100%,100%);fill-opacity:1;" d="M 107.316406 135.382812 L 132.367188 135.382812 L 132.367188 157.035156 L 107.316406 157.035156 Z M 107.316406 135.382812 "/>
<path style=" stroke:none;fill-rule:nonzero;fill:rgb(88.627451%,88.627451%,92.54902%);fill-opacity:1;" d="M 132.242188 135.507812 L 132.242188 156.90625 L 107.441406 156.90625 L 107.441406 135.507812 L 132.242188 135.507812 M 132.492188 135.257812 L 107.1875 135.257812 L 107.1875 157.160156 L 132.492188 157.160156 Z M 132.492188 135.257812 "/>
<path style=" stroke:none;fill-rule:nonzero;fill:rgb(100%,100%,100%);fill-opacity:1;" d="M 82.015625 135.382812 L 107.066406 135.382812 L 107.066406 157.035156 L 82.015625 157.035156 Z M 82.015625 135.382812 "/>
<path style=" stroke:none;fill-rule:nonzero;fill:rgb(88.627451%,88.627451%,92.54902%);fill-opacity:1;" d="M 106.941406 135.507812 L 106.941406 156.90625 L 82.140625 156.90625 L 82.140625 135.507812 L 106.941406 135.507812 M 107.191406 135.257812 L 81.890625 135.257812 L 81.890625 157.160156 L 107.191406 157.160156 Z M 107.191406 135.257812 "/>
<path style=" stroke:none;fill-rule:nonzero;fill:rgb(100%,100%,100%);fill-opacity:1;" d="M 56.71875 135.382812 L 81.765625 135.382812 L 81.765625 157.035156 L 56.71875 157.035156 Z M 56.71875 135.382812 "/>
<path style=" stroke:none;fill-rule:nonzero;fill:rgb(88.627451%,88.627451%,92.54902%);fill-opacity:1;" d="M 81.640625 135.507812 L 81.640625 156.90625 L 56.839844 156.90625 L 56.839844 135.507812 L 81.640625 135.507812 M 81.890625 135.257812 L 56.589844 135.257812 L 56.589844 157.160156 L 81.890625 157.160156 Z M 81.890625 135.257812 "/>
<path style=" stroke:none;fill-rule:nonzero;fill:rgb(42.352941%,38.823529%,100%);fill-opacity:1;" d="M 109.332031 176.882812 C 110.046875 176.339844 110.722656 175.695312 110.929688 174.914062 C 111.152344 174.050781 110.660156 173.167969 109.8125 172.90625 C 108.789062 172.582031 107.691406 173.15625 106.859375 173.75 C 106.027344 174.34375 105.078125 175.003906 103.992188 174.882812 C 105.117188 174.066406 105.652344 172.746094 105.34375 171.542969 C 105.289062 171.285156 105.160156 171.046875 104.96875 170.863281 C 104.398438 170.363281 103.367188 170.582031 102.683594 170.972656 C 100.519531 172.226562 99.914062 174.625 99.902344 176.789062 C 99.683594 176.007812 99.867188 175.195312 99.859375 174.394531 C 99.855469 173.589844 99.589844 172.703125 98.761719 172.273438 C 98.234375 172.042969 97.660156 171.933594 97.082031 171.949219 C 96.109375 171.917969 95.023438 172 94.359375 172.582031 C 93.535156 173.304688 93.75 174.519531 94.46875 175.3125 C 95.1875 176.109375 96.28125 176.609375 97.285156 177.160156 C 98.050781 177.578125 98.828125 178.066406 99.289062 178.730469 C 99.351562 178.816406 99.402344 178.910156 99.441406 179.011719 L 105.546875 179.011719 C 106.890625 178.460938 108.160156 177.746094 109.332031 176.882812 Z M 109.332031 176.882812 "/>
<path style=" stroke:none;fill-rule:nonzero;fill:rgb(98.823529%,40%,50.588235%);fill-opacity:1;" d="M 61.449219 51.074219 C 61.449219 51.863281 60.808594 52.503906 60.023438 52.503906 C 59.234375 52.503906 58.59375 51.863281 58.59375 51.074219 C 58.59375 50.28125 59.234375 49.644531 60.023438 49.644531 C 60.808594 49.644531 61.449219 50.28125 61.449219 51.074219 Z M 61.449219 51.074219 "/>
<path style=" stroke:none;fill-rule:nonzero;fill:rgb(100%,81.568627%,21.568627%);fill-opacity:1;" d="M 65.015625 51.074219 C 65.015625 51.863281 64.378906 52.503906 63.589844 52.503906 C 62.800781 52.503906 62.160156 51.863281 62.160156 51.074219 C 62.160156 50.28125 62.800781 49.644531 63.589844 49.644531 C 64.378906 49.644531 65.015625 50.28125 65.015625 51.074219 Z M 65.015625 51.074219 "/>
<path style=" stroke:none;fill-rule:nonzero;fill:rgb(42.352941%,38.823529%,100%);fill-opacity:1;" d="M 111.875 72.277344 C 111.875 73.066406 111.234375 73.707031 110.445312 73.707031 C 109.65625 73.707031 109.019531 73.066406 109.019531 72.277344 C 109.019531 71.488281 109.65625 70.847656 110.445312 70.847656 C 111.234375 70.847656 111.875 71.488281 111.875 72.277344 Z M 111.875 72.277344 "/>
<path style=" stroke:none;fill-rule:nonzero;fill:rgb(42.352941%,38.823529%,100%);fill-opacity:1;" d="M 115.445312 72.277344 C 115.445312 73.066406 114.804688 73.707031 114.015625 73.707031 C 113.226562 73.707031 112.585938 73.066406 112.585938 72.277344 C 112.585938 71.488281 113.226562 70.847656 114.015625 70.847656 C 114.804688 70.847656 115.445312 71.488281 115.445312 72.277344 Z M 115.445312 72.277344 "/>
<path style=" stroke:none;fill-rule:nonzero;fill:rgb(42.352941%,38.823529%,100%);fill-opacity:1;" d="M 188.222656 113.253906 C 188.222656 114.046875 187.585938 114.683594 186.796875 114.683594 C 186.007812 114.683594 185.367188 114.046875 185.367188 113.253906 C 185.367188 112.464844 186.007812 111.824219 186.796875 111.824219 C 187.585938 111.824219 188.222656 112.464844 188.222656 113.253906 Z M 188.222656 113.253906 "/>
<path style=" stroke:none;fill-rule:nonzero;fill:rgb(42.352941%,38.823529%,100%);fill-opacity:1;" d="M 188.9375 111.589844 C 188.9375 112.378906 188.296875 113.019531 187.511719 113.019531 C 186.722656 113.019531 186.082031 112.378906 186.082031 111.589844 C 186.082031 110.800781 186.722656 110.160156 187.511719 110.160156 C 188.296875 110.160156 188.9375 110.800781 188.9375 111.589844 Z M 188.9375 111.589844 "/>
<path style=" stroke:none;fill-rule:nonzero;fill:rgb(42.352941%,38.823529%,100%);fill-opacity:1;" d="M 189.652344 110.160156 C 189.652344 110.949219 189.011719 111.589844 188.222656 111.589844 C 187.433594 111.589844 186.796875 110.949219 186.796875 110.160156 C 186.796875 109.367188 187.433594 108.726562 188.222656 108.726562 C 189.011719 108.726562 189.652344 109.367188 189.652344 110.160156 Z M 189.652344 110.160156 "/>
<path style=" stroke:none;fill-rule:nonzero;fill:rgb(42.352941%,38.823529%,100%);fill-opacity:1;" d="M 163.011719 51.074219 C 163.011719 51.863281 162.371094 52.503906 161.582031 52.503906 C 160.796875 52.503906 160.15625 51.863281 160.15625 51.074219 C 160.15625 50.28125 160.796875 49.644531 161.582031 49.644531 C 162.371094 49.644531 163.011719 50.28125 163.011719 51.074219 Z M 163.011719 51.074219 "/>
<path style=" stroke:none;fill-rule:nonzero;fill:rgb(42.352941%,38.823529%,100%);fill-opacity:1;" d="M 166.578125 51.074219 C 166.578125 51.863281 165.941406 52.503906 165.152344 52.503906 C 164.363281 52.503906 163.722656 51.863281 163.722656 51.074219 C 163.722656 50.28125 164.363281 49.644531 165.152344 49.644531 C 165.941406 49.644531 166.578125 50.28125 166.578125 51.074219 Z M 166.578125 51.074219 "/>
<path style=" stroke:none;fill-rule:nonzero;fill:rgb(42.352941%,38.823529%,100%);fill-opacity:1;" d="M 170.148438 51.074219 C 170.148438 51.863281 169.507812 52.503906 168.722656 52.503906 C 167.933594 52.503906 167.292969 51.863281 167.292969 51.074219 C 167.292969 50.28125 167.933594 49.644531 168.722656 49.644531 C 169.507812 49.644531 170.148438 50.28125 170.148438 51.074219 Z M 170.148438 51.074219 "/>
<path style=" stroke:none;fill-rule:nonzero;fill:rgb(42.352941%,38.823529%,100%);fill-opacity:1;" d="M 173.714844 51.074219 C 173.714844 51.863281 173.078125 52.503906 172.289062 52.503906 C 171.5 52.503906 170.859375 51.863281 170.859375 51.074219 C 170.859375 50.28125 171.5 49.644531 172.289062 49.644531 C 173.078125 49.644531 173.714844 50.28125 173.714844 51.074219 Z M 173.714844 51.074219 "/>
<path style=" stroke:none;fill-rule:nonzero;fill:rgb(42.352941%,38.823529%,100%);fill-opacity:1;" d="M 163.011719 95.386719 C 163.011719 96.175781 162.371094 96.816406 161.582031 96.816406 C 160.796875 96.816406 160.15625 96.175781 160.15625 95.386719 C 160.15625 94.597656 160.796875 93.957031 161.582031 93.957031 C 162.371094 93.957031 163.011719 94.597656 163.011719 95.386719 Z M 163.011719 95.386719 "/>
<path style=" stroke:none;fill-rule:nonzero;fill:rgb(42.352941%,38.823529%,100%);fill-opacity:1;" d="M 166.578125 95.386719 C 166.578125 96.175781 165.941406 96.816406 165.152344 96.816406 C 164.363281 96.816406 163.722656 96.175781 163.722656 95.386719 C 163.722656 94.597656 164.363281 93.957031 165.152344 93.957031 C 165.941406 93.957031 166.578125 94.597656 166.578125 95.386719 Z M 166.578125 95.386719 "/>
<path style=" stroke:none;fill-rule:nonzero;fill:rgb(42.352941%,38.823529%,100%);fill-opacity:1;" d="M 170.148438 95.386719 C 170.148438 96.175781 169.507812 96.816406 168.722656 96.816406 C 167.933594 96.816406 167.292969 96.175781 167.292969 95.386719 C 167.292969 94.597656 167.933594 93.957031 168.722656 93.957031 C 169.507812 93.957031 170.148438 94.597656 170.148438 95.386719 Z M 170.148438 95.386719 "/>
<path style=" stroke:none;fill-rule:nonzero;fill:rgb(42.352941%,38.823529%,100%);fill-opacity:1;" d="M 173.714844 95.386719 C 173.714844 96.175781 173.078125 96.816406 172.289062 96.816406 C 171.5 96.816406 170.859375 96.175781 170.859375 95.386719 C 170.859375 94.597656 171.5 93.957031 172.289062 93.957031 C 173.078125 93.957031 173.714844 94.597656 173.714844 95.386719 Z M 173.714844 95.386719 "/>
<path style=" stroke:none;fill-rule:nonzero;fill:rgb(100%,81.568627%,21.568627%);fill-opacity:1;" d="M 86.660156 72.277344 C 86.660156 73.066406 86.023438 73.707031 85.234375 73.707031 C 84.445312 73.707031 83.804688 73.066406 83.804688 72.277344 C 83.804688 71.488281 84.445312 70.847656 85.234375 70.847656 C 86.023438 70.847656 86.660156 71.488281 86.660156 72.277344 Z M 86.660156 72.277344 "/>
<path style=" stroke:none;fill-rule:nonzero;fill:rgb(98.823529%,40%,50.588235%);fill-opacity:1;" d="M 61.449219 93.957031 C 61.449219 94.746094 60.808594 95.386719 60.023438 95.386719 C 59.234375 95.386719 58.59375 94.746094 58.59375 93.957031 C 58.59375 93.167969 59.234375 92.527344 60.023438 92.527344 C 60.808594 92.527344 61.449219 93.167969 61.449219 93.957031 Z M 61.449219 93.957031 "/>
<path style=" stroke:none;fill-rule:nonzero;fill:url(#linear1);" d="M 185.5625 116.84375 C 187.128906 117.769531 189.570312 118.371094 192.664062 116.382812 L 192.636719 120.789062 C 192.855469 123.800781 196.585938 134.816406 196.585938 134.816406 L 199.214844 143.875 C 201.101562 150.277344 202.074219 156.910156 202.109375 163.582031 C 202.109375 165.792969 202.3125 168.070312 202.945312 169.785156 C 204.347656 173.578125 202.394531 178.464844 201.550781 180.28125 C 200.125 180.765625 198.675781 181.171875 197.207031 181.507812 C 197.074219 181.539062 196.945312 181.578125 196.820312 181.625 L 196.800781 181.601562 C 196.800781 181.601562 192.851562 183.167969 191.101562 182.953125 C 189.792969 182.792969 188.972656 184.425781 189.996094 185.628906 C 189.03125 185.878906 188.039062 186.058594 187.371094 185.972656 C 185.617188 185.757812 184.738281 188.78125 188.027344 189.644531 C 191.320312 190.503906 209.972656 189.644531 209.972656 189.644531 C 211.050781 189.101562 211.628906 187.898438 211.375 186.714844 C 212.808594 186.660156 213.703125 186.617188 213.703125 186.617188 C 213.703125 186.617188 216.992188 185.113281 213.703125 181.003906 L 213.527344 181.136719 L 212.820312 179.0625 L 212.820312 176.261719 C 212.820312 176.261719 216.992188 156.183594 215.675781 153.8125 C 214.359375 151.4375 213.703125 139.351562 213.703125 139.351562 L 214.148438 126.183594 C 215.335938 123.722656 215.945312 119.871094 216.253906 116.855469 C 216.703125 115.417969 216.984375 113.933594 217.097656 112.433594 C 217.148438 111.722656 217.191406 110.980469 217.21875 110.210938 C 217.230469 108.519531 216.953125 106.84375 216.402344 105.246094 C 217.65625 103.4375 219.691406 100.644531 221.371094 98.996094 C 224.003906 96.40625 223.347656 93.382812 223.347656 93.382812 L 222.25 86.042969 L 219.617188 73.523438 C 219.945312 70.050781 219.222656 68.050781 218.421875 66.917969 C 218.613281 65.796875 218.792969 64.675781 218.925781 63.550781 C 219.507812 58.648438 219.25 53.6875 218.15625 48.875 C 217.773438 47.195312 217.257812 45.476562 216.082031 44.203125 C 214.75 42.761719 212.589844 41.882812 212.097656 39.996094 C 211.972656 39.527344 211.96875 39.027344 211.789062 38.578125 C 211.308594 37.34375 209.785156 36.894531 208.453125 36.730469 C 206.078125 36.445312 202.644531 36.230469 200.363281 37.160156 C 198.769531 37.8125 196.574219 39.609375 195.703125 41.535156 C 195.199219 42.421875 194.96875 43.351562 195.179688 44.226562 C 195.265625 44.550781 195.390625 44.859375 195.558594 45.148438 C 195.21875 46.070312 195.046875 47.046875 195.046875 48.03125 C 195.0625 51.492188 197.191406 54.589844 200.414062 55.84375 C 200.464844 56.007812 200.515625 56.171875 200.554688 56.332031 C 200.652344 56.71875 200.726562 57.113281 200.769531 57.507812 C 200.726562 58.261719 200.679688 59.039062 200.644531 59.804688 C 200.621094 59.910156 200.59375 60.011719 200.5625 60.113281 C 198.675781 60.953125 196.835938 61.890625 195.054688 62.929688 C 196.371094 64.871094 194.832031 73.074219 194.832031 73.074219 C 191.539062 75.015625 188.25 79.984375 191.761719 85.164062 C 195.273438 90.34375 193.296875 95.953125 193.296875 95.953125 L 192.75 104.390625 L 192.75 104.40625 L 192.636719 106.097656 L 192.679688 106.097656 L 192.636719 106.734375 L 192.734375 106.753906 L 192.734375 107.441406 C 191.191406 108.007812 188.941406 109.152344 187.597656 111.269531 C 186.960938 112.308594 186.191406 113.257812 185.300781 114.089844 C 184.886719 114.449219 184.671875 114.988281 184.722656 115.535156 C 184.773438 116.082031 185.089844 116.570312 185.5625 116.84375 Z M 212.058594 94.417969 C 211.925781 92.960938 212.195312 91.492188 212.835938 90.175781 C 213.351562 90.183594 213.871094 90.191406 214.386719 90.191406 C 214.441406 90.554688 214.503906 90.902344 214.578125 91.21875 C 215.023438 93.121094 213.242188 94.03125 212.054688 94.417969 Z M 212.058594 94.417969 "/>
<path style=" stroke:none;fill-rule:nonzero;fill:rgb(85.882353%,54.509804%,54.509804%);fill-opacity:1;" d="M 212.492188 178.078125 L 213.335938 180.617188 L 210.582031 183.375 L 201.5 185.492188 L 194.957031 184.855469 L 195.378906 182.53125 C 195.632812 181.511719 196.4375 180.71875 197.457031 180.480469 C 200.148438 179.847656 205.277344 178.402344 206.355469 176.398438 Z M 212.492188 178.078125 "/>
<use xlink:href="#surface8" mask="url(#mask1)"/>
<path style=" stroke:none;fill-rule:nonzero;fill:rgb(18.039216%,18.823529%,21.568627%);fill-opacity:1;" d="M 197.078125 184.210938 L 198.34375 182.519531 L 197.078125 180.5625 C 197.078125 180.5625 193.277344 182.097656 191.589844 181.886719 C 189.898438 181.675781 189.054688 184.644531 192.222656 185.480469 C 195.390625 186.316406 213.335938 185.480469 213.335938 185.480469 C 213.335938 185.480469 216.503906 184 213.335938 179.984375 L 210.582031 182.097656 C 210.582031 182.097656 205.933594 184.636719 203.613281 184.214844 Z M 197.078125 184.210938 "/>
<path style=" stroke:none;fill-rule:nonzero;fill:rgb(85.882353%,54.509804%,54.509804%);fill-opacity:1;" d="M 191.375 187.804688 L 197.921875 188.4375 L 207 186.324219 L 209.757812 183.5625 L 209.53125 182.890625 L 209.21875 181.945312 L 208.902344 181.027344 L 202.777344 179.335938 C 202.464844 179.847656 202.035156 180.277344 201.527344 180.589844 C 199.539062 181.953125 195.964844 182.9375 193.867188 183.429688 C 193.78125 183.449219 193.699219 183.476562 193.617188 183.507812 C 192.714844 183.8125 192.03125 184.554688 191.796875 185.480469 Z M 191.375 187.804688 "/>
<use xlink:href="#surface11" mask="url(#mask2)"/>
<path style=" stroke:none;fill-rule:nonzero;fill:rgb(18.039216%,18.823529%,21.568627%);fill-opacity:1;" d="M 193.488281 187.171875 L 194.753906 185.480469 L 193.488281 183.523438 C 193.488281 183.523438 189.6875 185.058594 188 184.847656 C 186.308594 184.636719 185.464844 187.609375 188.632812 188.441406 C 191.796875 189.277344 209.746094 188.441406 209.746094 188.441406 C 209.746094 188.441406 212.914062 186.960938 209.746094 182.945312 L 206.988281 185.058594 C 206.988281 185.058594 202.34375 187.597656 200.023438 187.175781 Z M 193.488281 187.171875 "/>
<path style=" stroke:none;fill-rule:nonzero;fill:rgb(85.882353%,54.509804%,54.509804%);fill-opacity:1;" d="M 198.765625 64.507812 C 198.765625 64.507812 208.902344 65.566406 207.421875 61.335938 C 207.011719 60.136719 206.902344 58.855469 207.109375 57.601562 C 207.375 56.050781 207.984375 54.578125 208.902344 53.300781 L 199.398438 54.78125 C 199.96875 55.734375 200.402344 56.765625 200.6875 57.839844 C 201.820312 62.324219 198.765625 64.507812 198.765625 64.507812 Z M 198.765625 64.507812 "/>
<path style=" stroke:none;fill-rule:nonzero;fill:rgb(27.843137%,26.666667%,38.823529%);fill-opacity:1;" d="M 216.078125 112.726562 C 216.078125 112.726562 215.867188 121.820312 213.757812 126.261719 L 213.332031 139.164062 C 213.332031 139.164062 213.96875 151.007812 215.234375 153.335938 C 216.503906 155.660156 212.480469 175.328125 212.480469 175.328125 L 212.480469 178.714844 C 212.480469 178.714844 205.714844 181.25 203.820312 178.289062 L 205.722656 153.121094 L 204.878906 118.226562 Z M 216.078125 112.726562 "/>
<use xlink:href="#surface14" mask="url(#mask3)"/>
<path style=" stroke:none;fill-rule:nonzero;fill:rgb(98.823529%,40%,50.588235%);fill-opacity:1;" d="M 220.300781 83.542969 L 221.570312 86.925781 L 222.625 94.117188 C 222.914062 96.152344 222.207031 98.199219 220.722656 99.617188 C 218.191406 102.152344 214.8125 107.441406 214.8125 107.441406 L 210.804688 95.394531 C 210.804688 95.394531 214.8125 94.761719 214.183594 92.011719 C 213.554688 89.261719 213.757812 84.167969 213.757812 84.167969 Z M 220.300781 83.542969 "/>
<use xlink:href="#surface17" mask="url(#mask4)"/>
<use xlink:href="#surface20" mask="url(#mask5)"/>
<path style=" stroke:none;fill-rule:nonzero;fill:rgb(27.843137%,26.666667%,38.823529%);fill-opacity:1;" d="M 193.066406 120.976562 C 193.277344 123.9375 196.867188 134.722656 196.867188 134.722656 L 199.398438 143.597656 C 201.214844 149.875 202.152344 156.371094 202.183594 162.90625 C 202.183594 165.070312 202.378906 167.304688 202.992188 168.984375 C 204.679688 173.636719 201.304688 179.980469 201.304688 179.980469 C 204.257812 185.269531 209.320312 181.671875 209.320312 181.671875 L 209.320312 178.289062 C 209.320312 178.289062 213.328125 159.890625 212.277344 156.296875 C 211.222656 152.703125 210.796875 142.972656 210.796875 142.972656 L 210.796875 125.40625 C 214.179688 122.03125 216.238281 117.546875 216.59375 112.777344 C 216.644531 112.085938 216.683594 111.359375 216.710938 110.601562 C 216.878906 105.835938 213.625 100.238281 212.351562 98.242188 C 212.046875 97.761719 211.851562 97.492188 211.851562 97.492188 L 193.207031 104.898438 L 193.164062 104.917969 L 193.164062 107.238281 Z M 193.066406 120.976562 "/>
<use xlink:href="#surface23" mask="url(#mask6)"/>
<path style=" stroke:none;fill-rule:nonzero;fill:rgb(85.882353%,54.509804%,54.509804%);fill-opacity:1;" d="M 211.859375 49.699219 C 211.859375 54.253906 208.171875 57.949219 203.625 57.949219 C 199.074219 57.949219 195.390625 54.253906 195.390625 49.699219 C 195.390625 45.144531 199.074219 41.453125 203.625 41.453125 C 208.171875 41.453125 211.859375 45.144531 211.859375 49.699219 Z M 211.859375 49.699219 "/>
<use xlink:href="#surface26" mask="url(#mask7)"/>
<path style=" stroke:none;fill-rule:nonzero;fill:rgb(98.823529%,40%,50.588235%);fill-opacity:1;" d="M 195.390625 64.292969 C 195.390625 64.292969 207.214844 57.101562 211.011719 60.0625 L 216.292969 66.839844 C 216.292969 66.839844 219.671875 67.894531 219.046875 74.664062 L 221.570312 86.925781 L 213.96875 88.832031 C 213.96875 88.832031 209.535156 93.0625 213.125 99.195312 C 213.125 99.195312 201.933594 108.5 193.066406 106.597656 L 193.699219 96.65625 C 193.699219 96.65625 195.601562 91.160156 192.222656 86.082031 C 188.84375 81.007812 192.011719 76.144531 195.179688 74.238281 C 195.179688 74.238281 196.652344 66.199219 195.390625 64.292969 Z M 195.390625 64.292969 "/>
<path style=" stroke:none;fill-rule:nonzero;fill:rgb(85.882353%,54.509804%,54.509804%);fill-opacity:1;" d="M 194.753906 107.441406 C 194.753906 107.441406 190.320312 108.285156 188.207031 111.671875 C 187.597656 112.6875 186.855469 113.617188 186 114.433594 C 185.609375 114.789062 185.40625 115.304688 185.457031 115.832031 C 185.507812 116.359375 185.800781 116.832031 186.25 117.105469 C 187.925781 118.109375 190.660156 118.734375 194.109375 115.894531 C 200.035156 111.035156 194.753906 107.441406 194.753906 107.441406 Z M 194.753906 107.441406 "/>
<use xlink:href="#surface29" mask="url(#mask8)"/>
<path style=" stroke:none;fill-rule:nonzero;fill:rgb(98.823529%,40%,50.588235%);fill-opacity:1;" d="M 200.871094 67.679688 C 200.871094 67.679688 205.09375 67.257812 206.148438 78.253906 C 207.203125 89.253906 208.902344 91.789062 208.902344 91.789062 C 208.902344 91.789062 209.957031 97.5 207.425781 100.882812 C 204.894531 104.265625 200.035156 111.457031 200.035156 111.457031 C 200.035156 111.457031 194.757812 112.9375 193.703125 107.652344 L 200.25 95.386719 C 200.25 95.386719 201.304688 91.15625 198.769531 88.195312 C 196.238281 85.234375 194.332031 65.566406 200.871094 67.679688 Z M 200.871094 67.679688 "/>
<use xlink:href="#surface32" mask="url(#mask9)"/>
<use xlink:href="#surface35" mask="url(#mask10)"/>
<use xlink:href="#surface38" mask="url(#mask11)"/>
<path style=" stroke:none;fill-rule:nonzero;fill:rgb(27.843137%,15.294118%,15.294118%);fill-opacity:1;" d="M 208.292969 38.621094 C 209.574219 38.78125 211.046875 39.222656 211.503906 40.429688 C 211.675781 40.871094 211.679688 41.363281 211.796875 41.820312 C 212.277344 43.667969 214.351562 44.527344 215.632812 45.941406 C 216.761719 47.195312 217.261719 48.875 217.636719 50.519531 C 218.691406 55.230469 218.945312 60.089844 218.390625 64.886719 C 217.976562 68.398438 217.136719 71.847656 216.902344 75.371094 C 216.664062 78.894531 217.097656 82.601562 219.015625 85.5625 C 219.84375 86.835938 220.9375 87.953125 221.523438 89.351562 C 220.3125 90.335938 218.640625 90.476562 217.082031 90.53125 C 215.265625 90.59375 213.449219 90.59375 211.632812 90.53125 C 210.679688 90.496094 209.6875 90.433594 208.863281 89.953125 C 208.253906 89.5625 207.753906 89.027344 207.410156 88.390625 C 206.371094 86.632812 206.109375 84.5 206.160156 82.453125 C 206.207031 80.40625 206.527344 78.367188 206.5625 76.316406 C 206.585938 75.199219 206.496094 74.011719 205.855469 73.101562 C 205.390625 72.441406 204.6875 71.996094 204.085938 71.460938 C 201.832031 69.453125 201.050781 66.238281 200.976562 63.214844 C 200.898438 60.191406 201.398438 57.160156 201.144531 54.148438 C 201.042969 52.96875 200.601562 51.550781 199.445312 51.320312 C 199.078125 51.25 198.691406 51.320312 198.34375 51.179688 C 197.414062 50.820312 197.503906 49.507812 197.238281 48.546875 C 196.9375 47.46875 196.019531 46.636719 195.761719 45.539062 C 195.152344 42.976562 198.40625 39.925781 200.535156 39.03125 C 202.703125 38.121094 206.007812 38.339844 208.292969 38.621094 Z M 208.292969 38.621094 "/>
</g>
</svg>
